<svg width="24" height="24" viewBox="0 0 24 24" fill="none" xmlns="http://www.w3.org/2000/svg">
<path d="M20.8939 8.18258C20.7547 8.29058 18.2971 9.67538 18.2971 12.7546C18.2971 16.3162 21.4243 17.5762 21.5179 17.6074C21.5035 17.6842 21.0211 19.333 19.8691 21.013C18.8419 22.4914 17.7691 23.9674 16.1371 23.9674C14.5051 23.9674 14.0851 23.0194 12.2011 23.0194C10.3651 23.0194 9.71229 23.9986 8.21949 23.9986C6.72669 23.9986 5.68509 22.6306 4.48749 20.9506C3.10029 18.9778 1.97949 15.913 1.97949 13.0042C1.97949 8.33858 5.01309 5.86418 7.99869 5.86418C9.58509 5.86418 10.9075 6.90578 11.9035 6.90578C12.8515 6.90578 14.3299 5.80178 16.1347 5.80178C16.8187 5.80178 19.2763 5.86418 20.8939 8.18258ZM15.2779 3.82658C16.0243 2.94098 16.5523 1.71218 16.5523 0.483377C16.5523 0.312977 16.5379 0.140177 16.5067 0.000976562C15.2923 0.0465766 13.8475 0.809777 12.9763 1.82018C12.2923 2.59778 11.6539 3.82658 11.6539 5.07218C11.6539 5.25938 11.6851 5.44658 11.6995 5.50658C11.7763 5.52098 11.9011 5.53778 12.0259 5.53778C13.1155 5.53778 14.4859 4.80818 15.2779 3.82658Z" fill="#121212"/>
</svg>
