<svg width="24" height="24" viewBox="0 0 24 24" fill="none" xmlns="http://www.w3.org/2000/svg">
<path d="M9.49954 4.50047V2.02647C9.49971 1.93283 9.52616 1.84112 9.57589 1.76178C9.62563 1.68244 9.69664 1.61867 9.78085 1.57771C9.86505 1.53675 9.95907 1.52026 10.0522 1.53012C10.1453 1.53998 10.2338 1.57579 10.3075 1.63347L22.9995 11.6005C23.059 11.6473 23.1071 11.7069 23.1402 11.775C23.1732 11.8431 23.1904 11.9178 23.1904 11.9935C23.1904 12.0692 23.1732 12.1438 23.1402 12.2119C23.1071 12.28 23.059 12.3397 22.9995 12.3865L10.3085 22.3575C10.2348 22.4152 10.1463 22.451 10.0532 22.4608C9.96007 22.4707 9.86605 22.4542 9.78185 22.4132C9.69764 22.3723 9.62663 22.3085 9.57689 22.2292C9.52716 22.1498 9.50071 22.0581 9.50054 21.9645V19.5005" stroke="#F2F2F2" stroke-linecap="round" stroke-linejoin="round"/>
<path d="M1.49954 2.02647C1.49971 1.93283 1.52616 1.84112 1.57589 1.76178C1.62563 1.68244 1.69664 1.61867 1.78085 1.57771C1.86505 1.53675 1.95907 1.52026 2.05218 1.53012C2.1453 1.53998 2.23378 1.57579 2.30754 1.63347L14.9995 11.6045C15.059 11.6513 15.1071 11.7109 15.1402 11.779C15.1732 11.8471 15.1904 11.9218 15.1904 11.9975C15.1904 12.0732 15.1732 12.1478 15.1402 12.2159C15.1071 12.284 15.059 12.3437 14.9995 12.3905L2.30854 22.3615C2.23478 22.4192 2.1463 22.455 2.05319 22.4648C1.96007 22.4747 1.86605 22.4582 1.78185 22.4172C1.69764 22.3763 1.62663 22.3125 1.57689 22.2332C1.52716 22.1538 1.50071 22.0621 1.50054 21.9685L1.49954 2.02647Z" stroke="#F2F2F2" stroke-linecap="round" stroke-linejoin="round"/>
</svg>
